<?xml version="1.0" standalone="no"?>
<!DOCTYPE svg PUBLIC "-//W3C//DTD SVG 20010904//EN"
 "http://www.w3.org/TR/2001/REC-SVG-20010904/DTD/svg10.dtd">
<svg version="1.0" xmlns="http://www.w3.org/2000/svg"
 width="500.000000pt" height="500.000000pt" viewBox="0 0 500.000000 500.000000"
 preserveAspectRatio="xMidYMid meet">

<g transform="translate(0.000000,500.000000) scale(0.100000,-0.100000)"
fill="#000000" stroke="none">
<path d="M1802 3348 c157 -142 248 -361 248 -592 0 -221 -68 -397 -211 -550
l-71 -76 358 0 357 0 -55 58 c-99 104 -152 198 -193 339 -82 280 -6 588 195
796 l56 57 -360 0 -359 0 35 -32z"/>
<path d="M2615 3365 c-106 -33 -195 -96 -255 -181 l-34 -49 40 36 c52 46 119
63 223 57 179 -10 310 -146 313 -323 2 -127 -61 -235 -173 -295 -60 -33 -70
-35 -159 -35 -105 0 -144 14 -217 78 l-37 32 30 -55 c43 -80 121 -154 191
-180 261 -97 539 3 649 235 49 101 61 176 46 278 -28 194 -169 353 -356 403
-63 17 -207 16 -261 -1z"/>
</g>
</svg>
